<?xml version="1.0" standalone="no"?>
<!DOCTYPE svg PUBLIC "-//W3C//DTD SVG 20010904//EN"
 "http://www.w3.org/TR/2001/REC-SVG-20010904/DTD/svg10.dtd">
<svg version="1.0" xmlns="http://www.w3.org/2000/svg"
 width="307.000000pt" height="79.000000pt" viewBox="0 0 307.000000 79.000000"
 preserveAspectRatio="xMidYMid meet">

<g transform="translate(0.000000,79.000000) scale(0.100000,-0.100000)"
fill="#000000" stroke="none">
<path d="M47 733 c-13 -12 -7 -94 8 -122 26 -52 71 -61 293 -61 224 0 242 -5
242 -65 0 -63 -8 -65 -241 -65 l-209 0 -6 -27 c-3 -16 -13 -53 -21 -83 -21
-77 -63 -249 -63 -261 0 -5 35 -9 78 -9 95 0 115 15 133 100 20 93 8 88 191
92 179 3 194 8 257 70 50 49 71 101 71 181 0 112 -46 186 -145 233 -49 23 -57
24 -316 24 -146 0 -269 -3 -272 -7z"/>
<path d="M930 356 l0 -166 45 0 45 0 0 59 0 59 60 7 c34 4 70 15 84 26 45 35
41 128 -6 158 -12 8 -64 16 -125 19 l-103 5 0 -167z m169 76 c15 -28 -5 -52
-44 -52 -33 0 -35 2 -35 35 0 33 2 35 35 35 23 0 38 -6 44 -18z"/>
<path d="M1700 464 c0 -50 -2 -55 -17 -48 -34 15 -92 9 -114 -12 -43 -44 -43
-143 2 -190 26 -28 89 -33 109 -9 7 8 16 15 21 15 5 0 9 -7 9 -15 0 -11 11
-15 40 -15 l40 0 0 159 0 159 -31 6 c-58 11 -59 10 -59 -50z m-16 -107 c23
-17 19 -85 -6 -101 -43 -26 -80 60 -43 98 20 19 26 20 49 3z"/>
<path d="M1857 514 c-4 -4 -7 -18 -7 -31 0 -21 5 -23 45 -23 41 0 45 2 45 25
0 17 -6 25 -17 25 -10 0 -27 3 -38 6 -11 3 -24 2 -28 -2z"/>
<path d="M2017 513 c-4 -3 -7 -78 -7 -165 l0 -158 40 0 40 0 0 159 c0 136 -2
160 -16 165 -21 8 -49 8 -57 -1z"/>
<path d="M2453 514 c-8 -4 8 -36 47 -94 59 -88 60 -90 60 -160 l0 -70 50 0 50
0 0 70 c0 70 1 72 60 159 63 95 63 101 0 101 -33 0 -50 -15 -81 -70 -13 -22
-25 -40 -29 -40 -3 0 -19 24 -36 53 -27 48 -33 52 -69 54 -22 1 -46 0 -52 -3z"/>
<path d="M1300 417 c-71 -24 -92 -139 -36 -196 24 -23 34 -26 100 -26 66 0 78
3 101 25 l27 25 -39 5 c-21 3 -50 1 -66 -5 -31 -11 -60 2 -65 29 -3 14 9 16
88 16 l92 0 -6 28 c-14 57 -29 81 -61 96 -39 19 -86 20 -135 3z m100 -56 c15
-30 14 -31 -35 -31 -30 0 -45 4 -45 13 0 37 62 51 80 18z"/>
<path d="M2223 419 c-47 -14 -73 -52 -73 -108 0 -74 48 -121 125 -121 80 0
135 49 135 120 0 91 -83 139 -187 109z m88 -65 c20 -24 16 -84 -6 -100 -25
-18 -31 -18 -55 6 -36 36 -20 110 24 110 13 0 30 -7 37 -16z"/>
<path d="M2823 420 c-20 -8 -49 -47 -41 -55 11 -11 80 -8 87 4 11 18 65 10 69
-11 2 -13 -10 -19 -55 -28 -62 -13 -93 -26 -105 -44 -14 -20 -8 -56 12 -76 24
-24 97 -27 126 -5 25 19 34 19 34 0 0 -11 11 -15 39 -15 l38 0 -5 93 c-5 104
-12 124 -48 137 -31 12 -121 12 -151 0z m117 -140 c0 -24 -41 -53 -64 -44 -23
9 -20 39 7 52 35 17 57 14 57 -8z"/>
<path d="M1850 305 l0 -115 45 0 45 0 0 115 0 115 -45 0 -45 0 0 -115z"/>
</g>
</svg>
